<svg width="48" height="48" viewBox="0 0 48 48" fill="none" xmlns="http://www.w3.org/2000/svg">
<g clip-path="url(#clip0)">
<path d="M47.295 0H33.7265C33.3372 0 33.0215 0.315657 33.0215 0.705001C33.0215 1.09435 33.3372 1.41 33.7265 1.41H46.5902V7.20967H43.8886V5.21692C43.8886 4.82757 43.5729 4.51192 43.1836 4.51192C42.7942 4.51192 42.4786 4.82757 42.4786 5.21692V7.20958H39.4456V5.21692C39.4456 4.82757 39.1299 4.51192 38.7406 4.51192C38.3512 4.51192 38.0356 4.82757 38.0356 5.21692V7.20958H35.0026V5.21692C35.0026 4.82757 34.6869 4.51192 34.2976 4.51192C33.9082 4.51192 33.5926 4.82757 33.5926 5.21692V7.20958H30.5596V5.21692C30.5596 4.82757 30.2439 4.51192 29.8546 4.51192C29.4652 4.51192 29.1496 4.82757 29.1496 5.21692V7.20958H26.1166V5.21692C26.1166 4.82757 25.8009 4.51192 25.4116 4.51192C25.0222 4.51192 24.7066 4.82757 24.7066 5.21692V7.20958H21.6735V5.21692C21.6735 4.82757 21.3579 4.51192 20.9685 4.51192C20.5792 4.51192 20.2635 4.82757 20.2635 5.21692V7.20958H17.2305V5.21692C17.2305 4.82757 16.9149 4.51192 16.5255 4.51192C16.1362 4.51192 15.8205 4.82757 15.8205 5.21692V7.20958H12.7875V5.21692C12.7875 4.82757 12.4719 4.51192 12.0825 4.51192C11.6932 4.51192 11.3775 4.82757 11.3775 5.21692V7.20958H8.61958V1.40991H30.9066C31.296 1.40991 31.6116 1.09425 31.6116 0.704908C31.6116 0.315563 31.2959 0 30.9066 0H0.705001C0.315657 0 0 0.315657 0 0.705001V7.91467V16.1105C0 16.4998 0.315657 16.8155 0.705001 16.8155C1.09435 16.8155 1.41 16.4998 1.41 16.1105V8.61958H7.20967V11.3779H5.21692C4.82757 11.3779 4.51192 11.6936 4.51192 12.0829C4.51192 12.4722 4.82757 12.7879 5.21692 12.7879H7.20958V15.8209H5.21692C4.82757 15.8209 4.51192 16.1366 4.51192 16.5259C4.51192 16.9153 4.82757 17.2309 5.21692 17.2309H7.20958V20.2639H5.21692C4.82757 20.2639 4.51192 20.5796 4.51192 20.9689C4.51192 21.3583 4.82757 21.6739 5.21692 21.6739H7.20958V24.7069H5.21692C4.82757 24.7069 4.51192 25.0226 4.51192 25.4119C4.51192 25.8013 4.82757 26.1169 5.21692 26.1169H7.20958V29.1499H5.21692C4.82757 29.1499 4.51192 29.4656 4.51192 29.8549C4.51192 30.2443 4.82757 30.5599 5.21692 30.5599H7.20958V33.5929H5.21692C4.82757 33.5929 4.51192 33.9086 4.51192 34.2979C4.51192 34.6873 4.82757 35.0029 5.21692 35.0029H7.20958V38.036H5.21692C4.82757 38.036 4.51192 38.3516 4.51192 38.741C4.51192 39.1303 4.82757 39.446 5.21692 39.446H7.20958V42.479H5.21692C4.82757 42.479 4.51192 42.7946 4.51192 43.184C4.51192 43.5733 4.82757 43.889 5.21692 43.889H7.20958V46.5906H1.40991V18.9302C1.40991 18.5409 1.09425 18.2252 0.704908 18.2252C0.315563 18.2252 0 18.5409 0 18.9302V47.2951C0 47.6844 0.315657 48.0001 0.705001 48.0001H7.91467C8.30402 48.0001 8.61967 47.6844 8.61967 47.2951V43.8885H35.2613C35.2642 43.8885 35.267 43.8881 35.2699 43.888C35.2901 43.8877 35.3102 43.887 35.3302 43.885C35.341 43.884 35.3518 43.8818 35.3625 43.8803C35.3744 43.8787 35.3866 43.8773 35.3984 43.875C35.4094 43.8728 35.4204 43.8696 35.4314 43.8668C35.4426 43.864 35.4541 43.8617 35.4651 43.8584C35.4753 43.8553 35.4851 43.8514 35.4951 43.8478C35.5068 43.8437 35.5187 43.84 35.5301 43.8353C35.5386 43.8318 35.5469 43.8275 35.5554 43.8235C35.5678 43.8178 35.5804 43.8125 35.5926 43.8059C35.6002 43.8019 35.6074 43.7971 35.6149 43.7928C35.6273 43.7856 35.64 43.7786 35.6521 43.7705C35.6603 43.7649 35.668 43.7587 35.6762 43.7527C35.6868 43.7449 35.6977 43.7376 35.708 43.7291C35.726 43.7144 35.7434 43.6987 35.76 43.6821L43.6822 35.7602C43.7052 35.7371 43.7257 35.7124 43.7452 35.6867C43.7487 35.6819 43.7523 35.6771 43.7557 35.6723C43.7924 35.6212 43.8219 35.5657 43.8436 35.507C43.8459 35.5009 43.8482 35.4946 43.8503 35.4882C43.87 35.4305 43.8821 35.3703 43.8862 35.3086C43.8868 35.3008 43.8871 35.293 43.8874 35.2851C43.8877 35.2773 43.8885 35.2695 43.8885 35.2615V28.763C43.8885 28.3737 43.5728 28.058 43.1835 28.058C42.7942 28.058 42.4785 28.3737 42.4785 28.763V34.5561H35.2612C34.8719 34.5561 34.5562 34.8718 34.5562 35.2611V42.4784H8.61958V8.61958H29.1497V9.32458C29.1497 9.71393 29.4654 10.0296 29.8547 10.0296C30.2441 10.0296 30.5598 9.71393 30.5598 9.32458V8.61958H42.4786V25.9434C42.4786 26.3327 42.7942 26.6484 43.1836 26.6484C43.5729 26.6484 43.8886 26.3327 43.8886 25.9434V8.61958H47.2952C47.6845 8.61958 48.0002 8.30392 48.0002 7.91458V0.705001C48 0.315657 47.6844 0 47.295 0ZM7.20967 7.20967H1.40991V1.40991H7.20958V7.20967H7.20967ZM35.9662 35.9662H41.4816L35.9662 41.4816V35.9662Z" fill="#272324"/>
<path d="M29.8544 27.4186C29.4651 27.4186 29.1494 27.7343 29.1494 28.1236V29.5335C29.1494 29.9229 29.4651 30.2386 29.8544 30.2386C30.2438 30.2386 30.5594 29.9229 30.5594 29.5335V28.1236C30.5594 27.7342 30.2438 27.4186 29.8544 27.4186Z" fill="#272324"/>
<path d="M29.8544 23.3768C29.4651 23.3768 29.1494 23.6925 29.1494 24.0818V25.4917C29.1494 25.8811 29.4651 26.1967 29.8544 26.1967C30.2438 26.1967 30.5594 25.8811 30.5594 25.4917V24.0818C30.5594 23.6925 30.2438 23.3768 29.8544 23.3768Z" fill="#272324"/>
<path d="M23.5017 29.1497H22.0917C21.7024 29.1497 21.3867 29.4654 21.3867 29.8547C21.3867 30.2441 21.7024 30.5597 22.0917 30.5597H23.5016C23.891 30.5597 24.2066 30.2441 24.2066 29.8547C24.2066 29.4654 23.891 29.1497 23.5017 29.1497Z" fill="#272324"/>
<path d="M11.3766 29.1497H9.96672C9.57738 29.1497 9.26172 29.4654 9.26172 29.8547C9.26172 30.2441 9.57738 30.5597 9.96672 30.5597H11.3766C11.766 30.5597 12.0816 30.2441 12.0816 29.8547C12.0816 29.4654 11.766 29.1497 11.3766 29.1497Z" fill="#272324"/>
<path d="M15.4186 29.1497H14.0087C13.6194 29.1497 13.3037 29.4654 13.3037 29.8547C13.3037 30.2441 13.6194 30.5597 14.0087 30.5597H15.4186C15.808 30.5597 16.1236 30.2441 16.1236 29.8547C16.1236 29.4654 15.808 29.1497 15.4186 29.1497Z" fill="#272324"/>
<path d="M19.4606 29.1497H18.0507C17.6614 29.1497 17.3457 29.4654 17.3457 29.8547C17.3457 30.2441 17.6614 30.5597 18.0507 30.5597H19.4606C19.85 30.5597 20.1656 30.2441 20.1656 29.8547C20.1656 29.4654 19.85 29.1497 19.4606 29.1497Z" fill="#272324"/>
<path d="M27.5446 29.1497H26.1347C25.7453 29.1497 25.4297 29.4654 25.4297 29.8547C25.4297 30.2441 25.7453 30.5597 26.1347 30.5597H27.5446C27.9339 30.5597 28.2496 30.2441 28.2496 29.8547C28.2496 29.4654 27.9339 29.1497 27.5446 29.1497Z" fill="#272324"/>
<path d="M29.8544 19.3351C29.4651 19.3351 29.1494 19.6507 29.1494 20.0401V21.45C29.1494 21.8393 29.4651 22.155 29.8544 22.155C30.2438 22.155 30.5594 21.8393 30.5594 21.45V20.0401C30.5594 19.6507 30.2438 19.3351 29.8544 19.3351Z" fill="#272324"/>
<path d="M29.8544 11.2514C29.4651 11.2514 29.1494 11.5671 29.1494 11.9564V13.3663C29.1494 13.7557 29.4651 14.0713 29.8544 14.0713C30.2438 14.0713 30.5594 13.7557 30.5594 13.3663V11.9564C30.5594 11.5671 30.2438 11.2514 29.8544 11.2514Z" fill="#272324"/>
<path d="M29.8544 15.2932C29.4651 15.2932 29.1494 15.6088 29.1494 15.9982V17.4081C29.1494 17.7974 29.4651 18.1131 29.8544 18.1131C30.2438 18.1131 30.5594 17.7974 30.5594 17.4081V15.9982C30.5594 15.6088 30.2438 15.2932 29.8544 15.2932Z" fill="#272324"/>
</g>
<defs>
<clipPath id="clip0">
<rect width="48" height="48" fill="white"/>
</clipPath>
</defs>
</svg>
