<svg width="48" height="48" viewBox="0 0 48 48" fill="none" xmlns="http://www.w3.org/2000/svg">
<path d="M47.5743 33.3641L37.4374 29.0084L39.2627 28.2318C39.6201 28.0797 39.7867 27.6667 39.6345 27.3093C39.4826 26.952 39.0698 26.7853 38.7119 26.9375L35.3731 28.358L24.0001 33.1965L12.6272 28.358C12.6268 28.3578 12.6264 28.3577 12.6259 28.3576L2.49243 24.0464L12.353 19.8096L23.7246 24.6474C23.8126 24.6848 23.9063 24.7036 24 24.7036C24.0937 24.7036 24.1874 24.6848 24.2754 24.6474L35.647 19.8096L45.5075 24.0465L41.3157 25.8298C40.9581 25.9818 40.7916 26.3948 40.9437 26.7522C41.0958 27.1096 41.5086 27.2763 41.8663 27.124L47.5719 24.6966C47.8311 24.5865 47.9994 24.3323 47.9999 24.0507C48.0005 23.7691 47.8329 23.5144 47.5742 23.4033L37.4374 19.0476L47.5719 14.736C47.8311 14.6259 47.9994 14.3717 47.9999 14.0901C48.0005 13.8085 47.8329 13.5537 47.5742 13.4426L24.2776 3.43253C24.1002 3.35631 23.8996 3.35631 23.7222 3.43253L9.17012 9.68535C8.81322 9.83872 8.64822 10.2523 8.80159 10.6093C8.95506 10.9661 9.36859 11.1312 9.72549 10.9778L23.9999 4.84431L45.5074 14.0858L23.9999 23.2357L2.49252 14.0858L7.12572 12.0949C7.48263 11.9415 7.64763 11.5279 7.49425 11.1711C7.34079 10.8143 6.92735 10.6491 6.57035 10.8026L0.425719 13.4428C0.16697 13.5539 -0.000561086 13.8086 1.4121e-06 14.0903C0.00056391 14.3718 0.168938 14.626 0.427969 14.7362L10.5625 19.0478L0.425719 23.4035C0.16697 23.5145 -0.000561086 23.7693 1.4121e-06 24.0509C0.00056391 24.3325 0.168938 24.5866 0.427969 24.6968L10.5625 29.0085L0.425719 33.3641C0.16697 33.4752 -0.000561086 33.7299 1.4121e-06 34.0115C0.00056391 34.293 0.168938 34.5472 0.427969 34.6574L23.7245 44.5686C23.8125 44.606 23.9062 44.6247 23.9999 44.6247C24.0936 44.6247 24.1873 44.606 24.2753 44.5686L27.8405 43.0519C28.1979 42.8997 28.3645 42.4868 28.2124 42.1294C28.0602 41.7718 27.6471 41.6055 27.2898 41.7576L24 43.1572L2.49243 34.007L12.353 29.7702L23.7246 34.608C23.8126 34.6454 23.9063 34.6642 24 34.6642C24.0937 34.6642 24.1874 34.6454 24.2754 34.608L35.647 29.7702L45.5076 34.0071L29.8936 40.6497C29.5362 40.8019 29.3696 41.2149 29.5218 41.5722C29.6738 41.9298 30.0869 42.0961 30.4443 41.944L47.572 34.6574C47.8312 34.5473 47.9995 34.2931 48 34.0115C48.0006 33.7299 47.833 33.4752 47.5743 33.3641Z" fill="#272324"/>
<path d="M17.25 13C17.25 12.5858 17.5858 12.25 18 12.25C18.4142 12.25 18.75 12.5858 18.75 13H17.25ZM18.75 16C18.75 16.4142 18.4142 16.75 18 16.75C17.5858 16.75 17.25 16.4142 17.25 16H18.75ZM17.25 22C17.25 21.5858 17.5858 21.25 18 21.25C18.4142 21.25 18.75 21.5858 18.75 22H17.25ZM18.75 26C18.75 26.4142 18.4142 26.75 18 26.75C17.5858 26.75 17.25 26.4142 17.25 26H18.75ZM17.25 31.5C17.25 31.0858 17.5858 30.75 18 30.75C18.4142 30.75 18.75 31.0858 18.75 31.5H17.25ZM18 38L18.5303 38.5303C18.2374 38.8232 17.7626 38.8232 17.4697 38.5303L18 38ZM19.9697 34.9697C20.2626 34.6768 20.7374 34.6768 21.0303 34.9697C21.3232 35.2626 21.3232 35.7374 21.0303 36.0303L19.9697 34.9697ZM14.9697 36.0303C14.6768 35.7374 14.6768 35.2626 14.9697 34.9697C15.2626 34.6768 15.7374 34.6768 16.0303 34.9697L14.9697 36.0303ZM18.75 13V16H17.25V13H18.75ZM18.75 22V26H17.25V22H18.75ZM18.75 31.5V36H17.25V31.5H18.75ZM18.75 36V38H17.25V36H18.75ZM17.4697 37.4697L19.9697 34.9697L21.0303 36.0303L18.5303 38.5303L17.4697 37.4697ZM17.4697 38.5303L14.9697 36.0303L16.0303 34.9697L18.5303 37.4697L17.4697 38.5303Z" fill="#272324"/>
<path d="M37.8293 4.00088C38.1222 3.70798 38.5971 3.70798 38.89 4.00088C39.1829 4.29377 39.1829 4.76864 38.89 5.06154L37.8293 4.00088ZM27.753 15.1378L27.753 15.8878C27.5541 15.8878 27.3634 15.8088 27.2227 15.6681C27.0821 15.5275 27.003 15.3367 27.003 15.1378H27.753ZM27.003 11.6317C27.003 11.2175 27.3388 10.8817 27.753 10.8817C28.1673 10.8817 28.503 11.2175 28.503 11.6317L27.003 11.6317ZM31.1317 14.3878C31.5459 14.3878 31.8817 14.7236 31.8817 15.1378C31.8817 15.552 31.5459 15.8878 31.1317 15.8878L31.1317 14.3878ZM33.5867 10.3648L29.6976 14.2539L28.6369 13.1933L32.526 9.30418L33.5867 10.3648ZM29.6976 14.2539L28.2834 15.6681L27.2227 14.6075L28.6369 13.1933L29.6976 14.2539ZM27.003 15.1378V11.6317L28.503 11.6317V15.1378L27.003 15.1378ZM27.753 14.3878L31.1317 14.3878L31.1317 15.8878L27.753 15.8878L27.753 14.3878ZM38.89 5.06154L33.5867 10.3648L32.526 9.30418L37.8293 4.00088L38.89 5.06154Z" fill="#272324"/>
</svg>
