<svg width="48" height="48" viewBox="0 0 48 48" fill="none" xmlns="http://www.w3.org/2000/svg">
<path d="M42.459 5.43719C42.0698 5.43719 41.7545 5.75266 41.7545 6.14172V13.1115H28.982L28.9358 13.0162C29.2478 12.3272 29.423 11.5634 29.423 10.759C29.423 7.9691 27.3316 5.65994 24.6346 5.31297V2.72003C24.6346 2.33097 24.3192 2.0155 23.9301 2.0155C23.541 2.0155 23.2255 2.33097 23.2255 2.72003V5.31297C20.5285 5.66003 18.4372 7.9691 18.4372 10.759C18.4372 11.6005 18.6278 12.3979 18.9675 13.1115H6.24563V6.14172C6.24563 5.75266 5.93016 5.43719 5.54109 5.43719C2.48578 5.43719 0 7.92297 0 10.9784V40.902C0 40.954 0.006 41.0045 0.0166875 41.0534C0.114 42.3499 0.674906 43.5545 1.61231 44.469C2.61431 45.4462 3.93694 45.9844 5.33691 45.9844H42.663C44.0629 45.9844 45.3857 45.4463 46.3876 44.469C47.3252 43.5545 47.8859 42.3499 47.9832 41.0534C47.9939 41.0045 47.9999 40.954 47.9999 40.902V10.9784H48C48 7.92297 45.5142 5.43719 42.459 5.43719ZM37.5852 34.0898C36.7741 34.3216 35.9132 34.2979 35.1011 34.0136C34.0629 33.65 33.2286 32.9041 32.7505 31.9107L25.0865 16.1283C25.6448 16.0082 26.1713 15.8026 26.6528 15.5265C26.6772 15.5126 26.7015 15.4987 26.7256 15.4846C26.7625 15.4626 26.7991 15.4401 26.8355 15.4174C26.8738 15.3935 26.9117 15.3692 26.9494 15.3442C26.9752 15.3273 27.001 15.3102 27.0266 15.2928C27.0865 15.2518 27.1458 15.2097 27.2041 15.1664C27.2083 15.1633 27.2126 15.1603 27.2168 15.1572C27.5151 14.9345 27.7918 14.6816 28.0411 14.4007L37.5852 34.0898ZM23.8671 22.0081C23.478 22.0081 23.1625 22.3235 23.1625 22.7126V24.1502H20.5946L24.0093 17.1359L27.4154 24.1502H24.5715V22.7126C24.5716 22.3235 24.2562 22.0081 23.8671 22.0081ZM23.9303 6.67525C26.182 6.67525 28.014 8.50722 28.014 10.7591C28.014 11.4845 27.8229 12.1659 27.4899 12.7571C27.466 12.7996 27.442 12.8419 27.4167 12.8834C27.3928 12.9226 27.3676 12.961 27.3423 12.9993C27.3254 13.025 27.3082 13.0505 27.2906 13.0759C27.2632 13.1156 27.2356 13.1552 27.2067 13.1937C27.1938 13.2111 27.18 13.228 27.1668 13.2452C27.1106 13.3182 27.052 13.3892 26.991 13.4581C26.9732 13.4782 26.9556 13.4987 26.9374 13.5184C26.9059 13.5528 26.8737 13.5862 26.8411 13.6194C26.8174 13.6435 26.7933 13.667 26.7691 13.6905C26.739 13.7196 26.7091 13.749 26.6781 13.7773C26.6258 13.8248 26.5724 13.8711 26.5177 13.9158C26.4962 13.9336 26.4738 13.9504 26.4518 13.9677C26.4073 14.0027 26.3624 14.0369 26.3166 14.0699C26.2977 14.0835 26.2788 14.0971 26.2598 14.1103C25.6075 14.5631 24.8269 14.8255 24.0069 14.8407H24.0068C24.0025 14.8408 23.9983 14.8409 23.995 14.841C23.9941 14.841 23.9932 14.8412 23.9924 14.8412C23.9917 14.8412 23.9909 14.8411 23.9902 14.8411L23.9302 14.8428C23.8465 14.8428 23.7634 14.8396 23.6805 14.8344C23.6617 14.8333 23.6432 14.8315 23.6245 14.8302C23.5539 14.8248 23.4834 14.818 23.4135 14.809C23.4023 14.8076 23.3911 14.8063 23.3798 14.8047C22.5931 14.6965 21.8564 14.3595 21.2608 13.8457C21.2554 13.841 21.2499 13.8363 21.2445 13.8316C21.1821 13.7772 21.121 13.7209 21.0619 13.6625C21.0601 13.6608 21.0582 13.6591 21.0564 13.6573C20.999 13.6005 20.9435 13.5414 20.8892 13.481C20.8737 13.4638 20.8587 13.446 20.8436 13.4284C20.807 13.3863 20.7713 13.3432 20.7363 13.2993C20.718 13.2764 20.6996 13.2534 20.6818 13.2301C20.644 13.1807 20.6075 13.1301 20.5719 13.0788C20.5563 13.0562 20.5406 13.0334 20.5254 13.0105C20.4892 12.9558 20.4542 12.9003 20.4204 12.8436C20.0563 12.2329 19.8465 11.5202 19.8465 10.7591C19.8464 8.50713 21.6785 6.67525 23.9303 6.67525ZM46.591 37.2134C46.5065 37.1188 46.4197 37.0259 46.3281 36.9364C45.4574 36.0861 44.353 35.5555 43.1634 35.405V31.2853C43.1634 30.8962 42.8481 30.5808 42.4589 30.5808C42.0697 30.5808 41.7544 30.8962 41.7544 31.2853V36.0654C41.7544 36.4545 42.0698 36.7699 42.4589 36.7699C42.4595 36.7699 42.46 36.7699 42.4606 36.7699C42.5299 36.7699 42.5988 36.7718 42.6673 36.7752C42.6847 36.776 42.702 36.7779 42.7193 36.7789C42.7714 36.7822 42.8234 36.7856 42.8749 36.7908C42.8908 36.7924 42.9067 36.7948 42.9225 36.7965C42.9759 36.8025 43.0292 36.8088 43.082 36.8167C43.0927 36.8183 43.1032 36.8205 43.1139 36.8222C43.1722 36.8314 43.2304 36.8416 43.2879 36.8534C43.2923 36.8542 43.2967 36.8554 43.3011 36.8563C44.5719 37.1205 45.6308 37.9701 46.1816 39.1096C46.1831 39.1128 46.1846 39.1159 46.1861 39.1191C46.2122 39.1733 46.2369 39.2282 46.2607 39.2836C46.2665 39.2972 46.2719 39.3109 46.2775 39.3245C46.296 39.3693 46.314 39.4143 46.331 39.4598C46.3402 39.4847 46.3489 39.5097 46.3577 39.5348C46.3698 39.5692 46.3816 39.6036 46.3928 39.6384C46.4043 39.6743 46.4151 39.7104 46.4257 39.7468C46.4327 39.7708 46.4396 39.7948 46.4462 39.819C46.4587 39.8651 46.4702 39.9115 46.4812 39.9582C46.4845 39.9728 46.488 39.9875 46.4913 40.0022C46.5034 40.057 46.5145 40.1121 46.5246 40.1676C46.5258 40.1743 46.527 40.1809 46.5281 40.1876C46.5389 40.2496 46.5484 40.3119 46.5564 40.3746C46.5565 40.3751 46.5565 40.3756 46.5566 40.3759C46.5732 40.5075 46.5837 40.6403 46.5878 40.7743C46.5201 42.9073 44.7998 44.5754 42.6631 44.5754H5.337C3.20025 44.5754 1.48012 42.9072 1.41244 40.7744C1.41647 40.6404 1.42687 40.5076 1.44356 40.3762C1.44366 40.3757 1.44375 40.3751 1.44375 40.3745C1.45162 40.312 1.46119 40.2497 1.47197 40.1878C1.47319 40.181 1.47441 40.1743 1.47563 40.1675C1.48547 40.1121 1.49662 40.0571 1.50881 40.0023C1.51209 39.9875 1.51556 39.9727 1.51903 39.958C1.52981 39.9115 1.54153 39.8652 1.55391 39.8192C1.56047 39.795 1.5675 39.7709 1.57444 39.7467C1.58494 39.7104 1.59572 39.6743 1.60725 39.6383C1.61841 39.6036 1.63022 39.5692 1.64231 39.5349C1.65103 39.5098 1.65975 39.4847 1.66913 39.4597C1.68609 39.4143 1.704 39.3694 1.72247 39.3247C1.72809 39.311 1.73363 39.2971 1.73944 39.2834C1.76316 39.228 1.78791 39.1731 1.81387 39.119C1.81537 39.1158 1.81678 39.1127 1.81837 39.1095C2.36944 37.9695 3.42919 37.1195 4.70091 36.8557C4.70447 36.855 4.70803 36.8541 4.71159 36.8534C4.76991 36.8415 4.82878 36.8313 4.88803 36.8218C4.89787 36.8202 4.90772 36.8182 4.91775 36.8167C4.97128 36.8086 5.02528 36.8022 5.07947 36.7961C5.09466 36.7944 5.10975 36.7922 5.12503 36.7906C5.17725 36.7853 5.22994 36.7818 5.28263 36.7786C5.29931 36.7775 5.316 36.7758 5.33269 36.7749C5.40169 36.7714 5.47125 36.7697 5.54109 36.7697C5.93016 36.7697 6.24563 36.4542 6.24563 36.0651V20.2101V20.21C6.24563 19.821 5.93016 19.5055 5.54109 19.5055C5.15203 19.5055 4.83656 19.821 4.83656 20.21V20.2101V35.4051C3.64688 35.5556 2.54259 36.0861 1.67184 36.9365C1.58025 37.026 1.49344 37.1189 1.40897 37.2135V10.9784C1.40897 8.94016 2.89266 7.24169 4.83656 6.90635V17.392V17.3921C4.83656 17.7812 5.15203 18.0966 5.54109 18.0966C5.93016 18.0966 6.24563 17.7812 6.24563 17.3921V17.392V14.5204H18.3532L17.3305 16.6262L16.8619 17.5911C16.6918 17.9411 16.8378 18.3626 17.1878 18.5327C17.2117 18.5442 17.2357 18.5539 17.26 18.5627C17.2664 18.5649 17.2729 18.5665 17.2792 18.5687C17.2969 18.5744 17.3147 18.5797 17.3325 18.5839C17.3412 18.586 17.3498 18.5875 17.3587 18.5892C17.3744 18.5923 17.3902 18.5952 17.406 18.5972C17.4155 18.5984 17.4249 18.5992 17.4345 18.6001C17.4496 18.6014 17.4647 18.6022 17.4798 18.6026C17.4849 18.6027 17.4901 18.6034 17.4952 18.6034C17.4989 18.6034 17.5026 18.6027 17.5063 18.6027C17.5338 18.6022 17.561 18.6006 17.5881 18.5971C17.5898 18.5968 17.5916 18.5968 17.5934 18.5965C17.6219 18.5925 17.6497 18.5863 17.6774 18.5789C17.685 18.5768 17.6925 18.5745 17.7001 18.5722C17.7226 18.5654 17.7446 18.5575 17.7663 18.5484C17.7717 18.5462 17.7773 18.5442 17.7827 18.5418C17.8086 18.5303 17.8336 18.5172 17.858 18.5025C17.8642 18.4987 17.8702 18.4946 17.8762 18.4907C17.8955 18.4784 17.9141 18.465 17.9321 18.4508C17.938 18.4461 17.944 18.4416 17.9498 18.4368C17.9718 18.4183 17.9929 18.3984 18.0126 18.3771C18.0162 18.3732 18.0194 18.369 18.023 18.3649C18.0393 18.3465 18.0548 18.3269 18.0692 18.3064C18.074 18.2997 18.0787 18.293 18.0833 18.2861C18.0998 18.2608 18.1156 18.2347 18.1291 18.2068L18.1292 18.2067L18.2587 17.94L19.9233 14.5128C19.9532 14.5446 19.984 14.5752 20.0146 14.6062C20.03 14.6219 20.0452 14.6379 20.0607 14.6534C20.1039 14.6961 20.148 14.7378 20.1925 14.7791C20.2483 14.831 20.3053 14.8815 20.3633 14.9311C20.376 14.9418 20.3885 14.9532 20.4013 14.964C20.4515 15.0061 20.5027 15.0468 20.5542 15.0873C20.5603 15.092 20.5663 15.0968 20.5724 15.1015C21.2475 15.6248 22.0471 15.994 22.9189 16.157L15.2486 31.913C14.9735 32.4845 14.5829 32.9638 14.1181 33.3363C13.0957 34.1556 11.7144 34.4583 10.4157 34.0896L16.8852 20.7686C16.9384 20.6593 16.9607 20.5428 16.9553 20.4294C16.944 20.1798 16.7998 19.944 16.5592 19.8271C16.2092 19.6572 15.7877 19.803 15.6176 20.153L13.6763 24.1503H11.0147C10.6256 24.1503 10.3102 24.4658 10.3102 24.8549C10.3102 25.2439 10.6256 25.5594 11.0147 25.5594H12.9921L8.81287 34.1646C8.80266 34.1856 8.79356 34.2072 8.7855 34.2289C8.75344 34.3159 8.739 34.4081 8.74266 34.5001C8.74537 34.569 8.75813 34.6378 8.78128 34.7041C8.84287 34.881 8.97234 35.026 9.14109 35.1072C9.43012 35.2463 9.72534 35.358 10.0238 35.4432C10.5213 35.5852 11.0278 35.6538 11.5297 35.6538C13.5878 35.6536 15.567 34.5002 16.5169 32.527L19.9088 25.5593H23.1627V27.7109C23.1627 28.0999 23.4782 28.4154 23.8673 28.4154C24.2563 28.4154 24.5718 28.0999 24.5718 27.7109V25.5593H28.1001L31.4822 32.5242C32.1224 33.8544 33.2424 34.8558 34.6357 35.3436C35.2336 35.553 35.851 35.657 36.4664 35.657C37.1827 35.657 37.8961 35.5159 38.5719 35.2358C38.6685 35.1958 38.7643 35.1529 38.8592 35.1072C39.0278 35.026 39.1572 34.8811 39.2189 34.7043C39.2806 34.5276 39.2692 34.3336 39.1876 34.1652L35.016 25.5594H36.7196C37.1088 25.5594 37.4242 25.2439 37.4242 24.8549C37.4242 24.4658 37.1088 24.1503 36.7196 24.1503H34.3329L29.6651 14.5206H41.7544V28.4674C41.7544 28.8565 42.0698 29.172 42.4589 29.172H42.459C42.8482 29.172 43.1635 28.8565 43.1635 28.4674V6.90635C45.1074 7.24169 46.591 8.94007 46.591 10.9784V37.2134Z" fill="#272324"/>
</svg>
