<svg width="48" height="48" viewBox="0 0 48 48" fill="none" xmlns="http://www.w3.org/2000/svg">
<g clip-path="url(#clip0)">
<path d="M40.9696 7.02938C36.4365 2.49647 30.4096 0 23.999 0C20.4616 0 17.0544 0.751969 13.8723 2.235C13.52 2.39916 13.3676 2.81784 13.5317 3.17006C13.6959 3.52228 14.1147 3.67472 14.4668 3.51066C17.2499 2.21362 20.2167 1.51172 23.2953 1.419V9.04378L11.4831 17.4243C11.4583 17.4419 11.4349 17.4612 11.4128 17.4817C11.4061 17.4878 11.4002 17.4947 11.3938 17.5012C11.3789 17.5161 11.3642 17.5312 11.3508 17.5473C11.3437 17.5558 11.3373 17.5647 11.3307 17.5735C11.3191 17.5887 11.3081 17.604 11.2979 17.62C11.2916 17.6299 11.2858 17.64 11.28 17.6502C11.2709 17.6662 11.2624 17.6824 11.2546 17.699C11.2495 17.7097 11.2446 17.7206 11.24 17.7317C11.233 17.7488 11.2269 17.7664 11.2213 17.7841C11.2177 17.7952 11.2141 17.806 11.2111 17.8173C11.2059 17.8368 11.2021 17.8567 11.1986 17.8766C11.1968 17.8865 11.1945 17.8962 11.1931 17.9062C11.1892 17.9363 11.1868 17.9669 11.1868 17.9977V21.4589C11.1868 21.8476 11.5019 22.1626 11.8905 22.1626C12.2791 22.1626 12.5941 21.8476 12.5941 21.4589V19.3599L23.2955 26.9523V38.4405L12.5941 30.8481V24.2738C12.5941 23.8851 12.2791 23.5701 11.8905 23.5701C11.5019 23.5701 11.1868 23.8851 11.1868 24.2738V30.841L4.50109 35.4282C2.48359 31.9997 1.4064 28.0828 1.4064 23.9998C1.4064 20.1002 2.4158 16.2564 4.32549 12.884C6.17771 9.61294 8.84255 6.82922 12.0316 4.83347C12.361 4.62731 12.461 4.19325 12.2548 3.86372C12.0486 3.53428 11.6145 3.43406 11.285 3.6405C7.89812 5.76 5.06809 8.71641 3.10084 12.1905C1.07152 15.7741 -0.000976562 19.8577 -0.000976562 24C-0.000976562 30.4106 2.49549 36.4375 7.0284 40.9706C11.5614 45.5035 17.5883 48 23.9989 48C30.4096 48 36.4365 45.5036 40.9695 40.9706C45.5025 36.4375 47.9988 30.4106 47.9988 24C47.9989 17.5894 45.5025 11.5625 40.9696 7.02938ZM13.1063 17.9981L23.999 10.2701L34.8916 17.9981L23.999 25.7261L13.1063 17.9981ZM39.9744 39.9754C35.7073 44.2426 30.0336 46.5926 23.999 46.5926C17.9643 46.5926 12.2909 44.2425 8.02355 39.9754C6.98359 38.9354 6.05855 37.8114 5.25259 36.6196L11.8835 32.0699L23.5919 40.3766C23.5921 40.3767 23.5921 40.3768 23.5923 40.3769C23.6188 40.3957 23.6467 40.4127 23.6761 40.4278C23.6779 40.4288 23.6799 40.4294 23.6818 40.4303C23.6894 40.4342 23.6971 40.437 23.7048 40.4406C23.7275 40.451 23.7504 40.4604 23.7739 40.4683C23.7843 40.4718 23.7947 40.4749 23.8052 40.4779C23.8276 40.4843 23.8501 40.4895 23.873 40.4936C23.8828 40.4954 23.8923 40.4975 23.9022 40.4989C23.9343 40.5034 23.9668 40.5063 23.999 40.5063H23.9991C24.0315 40.5063 24.0638 40.5034 24.0961 40.4989C24.1058 40.4976 24.1154 40.4954 24.1251 40.4937C24.1479 40.4896 24.1705 40.4843 24.1931 40.4779C24.2036 40.4749 24.2139 40.4719 24.2242 40.4684C24.2476 40.4604 24.2706 40.4511 24.2934 40.4406C24.301 40.437 24.3089 40.4342 24.3164 40.4304C24.3182 40.4295 24.3202 40.4288 24.3221 40.4279C24.3514 40.4128 24.3793 40.3957 24.4058 40.377C24.406 40.3769 24.4061 40.3768 24.4063 40.3767L36.1145 32.07L42.7455 36.6197C41.9395 37.8114 41.0143 38.9355 39.9744 39.9754ZM36.8115 30.8412V28.6035C36.8115 28.2149 36.4964 27.8998 36.1078 27.8998C35.7192 27.8998 35.4041 28.2149 35.4041 28.6035V30.8483L24.7027 38.4407V26.9526L35.4041 19.3602V25.7889C35.4041 26.1776 35.7192 26.4926 36.1078 26.4926C36.4964 26.4926 36.8115 26.1776 36.8115 25.7889V17.9981C36.8115 17.9673 36.8091 17.9367 36.8051 17.9065C36.8038 17.8966 36.8014 17.8868 36.7997 17.877C36.7963 17.8569 36.7924 17.8371 36.7873 17.8175C36.7843 17.8062 36.7805 17.7952 36.7771 17.7843C36.7714 17.7666 36.7653 17.7491 36.7583 17.732C36.7538 17.7209 36.7488 17.71 36.7438 17.6993C36.736 17.6827 36.7275 17.6664 36.7184 17.6505C36.7126 17.6403 36.7067 17.6302 36.7005 17.6203C36.6902 17.6043 36.6792 17.5889 36.6676 17.5738C36.661 17.565 36.6546 17.5561 36.6475 17.5476C36.6341 17.5314 36.6195 17.5163 36.6045 17.5014C36.5981 17.495 36.5922 17.4881 36.5854 17.4818C36.5633 17.4614 36.5401 17.4421 36.5151 17.4245L24.7027 9.04369V1.41938C30.4736 1.59478 35.8736 3.92381 39.9745 8.02462C44.2415 12.2917 46.5916 17.9653 46.5916 24C46.5916 28.083 45.5146 31.9999 43.4971 35.4285L36.8115 30.8412Z" fill="#272324"/>
</g>
<defs>
<clipPath id="clip0">
<rect width="48" height="48" fill="white"/>
</clipPath>
</defs>
</svg>
