<svg width="48" height="48" viewBox="0 0 48 48" fill="none" xmlns="http://www.w3.org/2000/svg">
<path d="M37.8675 33.3888C37.479 33.3888 37.164 33.7038 37.164 34.0923V40.1486C37.164 42.1585 35.5954 43.7767 33.5892 43.8405C33.4625 43.8367 33.3375 43.8265 33.2144 43.8112C33.2045 43.8098 33.1944 43.8087 33.1845 43.8073C33.1396 43.8013 33.0951 43.7942 33.0507 43.7868C33.0219 43.7818 32.9931 43.7769 32.9644 43.7713C32.9407 43.7668 32.9171 43.7618 32.8937 43.7569C31.1401 43.3806 29.8214 41.819 29.8214 39.9547C29.8214 39.5662 29.5064 39.2512 29.1179 39.2512H8.69428V13.4733C8.69428 13.0847 8.37928 12.7698 7.99078 12.7698C7.60228 12.7698 7.28728 13.0847 7.28728 13.4733V39.2514H0.7035C0.315 39.2514 0 39.5662 0 39.9549C0 42.8753 2.37581 45.2512 5.29622 45.2512H33.7103C33.7618 45.2512 33.8119 45.2452 33.8602 45.2347C35.0984 45.1409 36.2488 44.605 37.1222 43.7096C38.0565 42.7517 38.5711 41.4872 38.5711 40.1488V34.0925C38.571 33.7038 38.2561 33.3888 37.8675 33.3888ZM5.29622 43.8441C3.39197 43.8441 1.80291 42.4683 1.47084 40.6584H28.4605C28.6095 41.784 29.1148 42.8283 29.9202 43.6531C29.9842 43.7187 30.0501 43.7822 30.1169 43.8441H5.29622Z" fill="#272324"/>
<path d="M37.8683 2.74884H7.99159C7.60309 2.74884 7.28809 3.06384 7.28809 3.45234V10.6591C7.28809 11.0477 7.60309 11.3626 7.99159 11.3626C8.38009 11.3626 8.69509 11.0477 8.69509 10.6591V4.15594H37.1648V31.2784C37.1648 31.667 37.4798 31.9819 37.8683 31.9819C38.2568 31.9819 38.5718 31.667 38.5718 31.2784V3.45243C38.5718 3.06384 38.2569 2.74884 37.8683 2.74884Z" fill="#272324"/>
<path d="M47.9319 10.3593C47.9304 10.3561 47.9294 10.3526 47.9279 10.3495L44.9729 4.17011C44.856 3.92571 44.6092 3.77008 44.3383 3.77008C44.0673 3.77008 43.8205 3.92561 43.7036 4.17011L40.7486 10.3495C40.7471 10.3526 40.7461 10.3561 40.7446 10.3593C40.7016 10.4504 40.6768 10.5519 40.6768 10.6594V15.0194C40.6768 15.408 40.9918 15.7229 41.3803 15.7229C41.7688 15.7229 42.0838 15.408 42.0838 15.0194V11.3629H46.5927V36.1224H42.0838V17.8335C42.0838 17.4449 41.7688 17.13 41.3803 17.13C40.9918 17.13 40.6768 17.4449 40.6768 17.8335V42.6752C40.6768 43.8501 41.6327 44.806 42.8076 44.806H45.8689C47.0439 44.806 47.9998 43.8502 47.9998 42.6752V10.6593C47.9998 10.5518 47.975 10.4504 47.9319 10.3593ZM42.4995 9.94942L43.4025 8.06092H45.2738L46.1769 9.94942H42.4995ZM45.8689 43.3989H42.8076C42.4086 43.3989 42.0839 43.0743 42.0839 42.6752V40.73H46.5928V42.6752C46.5928 43.0743 46.2681 43.3989 45.8689 43.3989ZM46.5928 39.323H42.0839V37.5294H46.5928V39.323Z" fill="#272324"/>
<path d="M31.8909 30.069L28.3067 24.6073C30.1929 23.1153 31.3003 20.8514 31.3003 18.4222C31.3003 14.0712 27.7607 10.5316 23.4099 10.5316C19.059 10.5316 15.5194 14.0712 15.5194 18.4222C15.5194 20.8515 16.6269 23.1154 18.513 24.6073L14.929 30.069C14.7869 30.2852 14.7751 30.5618 14.8979 30.7892C15.0207 31.0167 15.2584 31.1586 15.5171 31.1586H31.3029C31.5614 31.1586 31.7991 31.0167 31.922 30.7892C32.0446 30.5618 32.0327 30.2853 31.8909 30.069ZM16.9263 18.4223C16.9263 14.8473 19.8347 11.9387 23.4098 11.9387C26.9847 11.9387 29.8932 14.8472 29.8932 18.4223C29.8932 20.3757 29.0216 22.1995 27.5313 23.4259L23.9981 18.0419C23.8679 17.8438 23.6469 17.7244 23.4099 17.7244C23.1729 17.7244 22.9517 17.8437 22.8217 18.0419L19.2884 23.4259C17.7978 22.1995 16.9263 20.3756 16.9263 18.4223ZM26.3555 24.198C26.355 24.1983 26.3545 24.1986 26.354 24.1988C26.3478 24.2017 26.3421 24.2043 26.3366 24.2071C26.2779 24.2369 26.2186 24.2657 26.1592 24.2937C26.1381 24.3037 26.1167 24.3131 26.0955 24.3228C26.0507 24.3432 26.0056 24.3633 25.9603 24.3827C25.9367 24.3928 25.9129 24.4029 25.8892 24.4127C25.844 24.4315 25.7985 24.4496 25.753 24.4673C25.7309 24.4758 25.7089 24.4845 25.6868 24.4929C25.6302 24.5141 25.5732 24.5345 25.5161 24.5542C25.5054 24.5578 25.4947 24.5619 25.4839 24.5655C25.4158 24.5885 25.3472 24.6102 25.2785 24.631C25.2598 24.6366 25.241 24.6417 25.2223 24.6472C25.1718 24.6619 25.121 24.6761 25.0701 24.6896C25.0462 24.696 25.0222 24.702 24.9982 24.7081C24.951 24.72 24.9036 24.7315 24.8561 24.7422C24.832 24.7478 24.808 24.7533 24.7838 24.7586C24.7314 24.7699 24.6787 24.7804 24.626 24.7904C24.6078 24.7939 24.5896 24.7977 24.5714 24.801C24.5006 24.8139 24.4294 24.8257 24.3581 24.8362C24.3444 24.8381 24.3305 24.8397 24.3168 24.8417C24.2591 24.8498 24.2013 24.8573 24.1434 24.8638C24.1192 24.8666 24.095 24.8689 24.0708 24.8713C24.0221 24.8763 23.9734 24.8807 23.9246 24.8846C23.899 24.8866 23.8732 24.8886 23.8475 24.8903C23.7973 24.8936 23.7469 24.8963 23.6966 24.8984C23.6739 24.8994 23.6512 24.9007 23.6284 24.9014C23.5558 24.9039 23.4832 24.9054 23.4103 24.9054C23.3375 24.9054 23.2648 24.9039 23.1923 24.9014C23.1695 24.9007 23.1468 24.8994 23.1241 24.8984C23.0738 24.8963 23.0234 24.8936 22.9733 24.8903C22.9475 24.8885 22.9218 24.8866 22.8961 24.8846C22.8474 24.8807 22.7986 24.8762 22.75 24.8713C22.7258 24.8689 22.7015 24.8666 22.6774 24.8638C22.6195 24.8573 22.5616 24.8498 22.504 24.8417C22.4903 24.8397 22.4764 24.8382 22.4627 24.8362C22.3914 24.8257 22.3202 24.8139 22.2493 24.801C22.2311 24.7977 22.213 24.7939 22.1948 24.7904C22.1421 24.7804 22.0894 24.7699 22.037 24.7586C22.0129 24.7533 21.9888 24.7478 21.9647 24.7422C21.9173 24.7315 21.8698 24.72 21.8227 24.7081C21.7987 24.702 21.7747 24.696 21.7508 24.6896C21.6999 24.6761 21.6491 24.6619 21.5985 24.6472C21.5798 24.6417 21.561 24.6366 21.5424 24.631C21.4736 24.6102 21.405 24.5885 21.337 24.5655C21.3262 24.5619 21.3155 24.5578 21.3047 24.5542C21.2476 24.5345 21.1906 24.5141 21.1341 24.4929C21.112 24.4845 21.0899 24.4758 21.0679 24.4673C21.0223 24.4496 20.9769 24.4315 20.9317 24.4127C20.9079 24.4029 20.8841 24.3928 20.8605 24.3827C20.8152 24.3633 20.7701 24.3432 20.7253 24.3228C20.7041 24.3131 20.6828 24.3037 20.6617 24.2937C20.6022 24.2658 20.543 24.237 20.4843 24.2071C20.4787 24.2043 20.473 24.2017 20.4674 24.1988C20.467 24.1985 20.4664 24.1982 20.4659 24.198L23.4112 19.7101L26.3555 24.198ZM16.82 29.7517L19.6886 25.3802C19.717 25.3954 19.7456 25.4096 19.7742 25.4244C19.8032 25.4395 19.832 25.4546 19.8611 25.4693C19.9167 25.4974 19.9728 25.5245 20.0291 25.5513C20.0532 25.5628 20.0772 25.5747 20.1015 25.586C20.1824 25.6235 20.2639 25.6598 20.3459 25.6945C20.3475 25.6951 20.3491 25.6957 20.3507 25.6963C20.4308 25.7301 20.5116 25.7622 20.5927 25.7934C20.6184 25.8032 20.6442 25.8124 20.67 25.822C20.7277 25.8433 20.7854 25.8642 20.8436 25.8842C20.8739 25.8946 20.9044 25.9046 20.935 25.9148C20.9896 25.9329 21.0446 25.9504 21.0996 25.9673C21.1309 25.9768 21.1621 25.9863 21.1936 25.9955C21.2501 26.012 21.307 26.0277 21.3639 26.043C21.3931 26.0509 21.4223 26.059 21.4517 26.0665C21.5189 26.0837 21.5866 26.0997 21.6544 26.1152C21.6731 26.1194 21.6918 26.1242 21.7106 26.1284C21.7974 26.1476 21.8845 26.1651 21.972 26.1812C21.9927 26.1851 22.0136 26.1881 22.0343 26.1918C22.101 26.2035 22.168 26.2148 22.2351 26.2249C22.2659 26.2295 22.2968 26.2335 22.3278 26.2377C22.3855 26.2457 22.4432 26.2532 22.5011 26.2599C22.5347 26.2637 22.5684 26.2673 22.6021 26.2707C22.6586 26.2765 22.7153 26.2816 22.772 26.2862C22.8053 26.2889 22.8386 26.2916 22.872 26.2939C22.9328 26.298 22.9937 26.3011 23.0546 26.3038C23.0834 26.3051 23.112 26.3068 23.1408 26.3078C23.2303 26.3108 23.3199 26.3126 23.4097 26.3126C23.4995 26.3126 23.5891 26.3108 23.6786 26.3078C23.7073 26.3068 23.736 26.3051 23.7648 26.3038C23.8257 26.3011 23.8867 26.298 23.9474 26.2939C23.9808 26.2916 24.0141 26.2889 24.0475 26.2862C24.1042 26.2816 24.1608 26.2766 24.2173 26.2707C24.251 26.2673 24.2846 26.2637 24.3183 26.2599C24.3761 26.2532 24.434 26.2457 24.4916 26.2377C24.5225 26.2335 24.5534 26.2295 24.5844 26.2249C24.6515 26.2149 24.7184 26.2036 24.7852 26.1918C24.8059 26.1881 24.8267 26.185 24.8474 26.1812C24.935 26.1651 25.0221 26.1475 25.1089 26.1284C25.1276 26.1243 25.1463 26.1195 25.1651 26.1152C25.2328 26.0997 25.3004 26.0837 25.3677 26.0665C25.3971 26.059 25.4262 26.0508 25.4556 26.043C25.5125 26.0277 25.5693 26.0121 25.6258 25.9955C25.6572 25.9863 25.6886 25.9768 25.7199 25.9673C25.7749 25.9504 25.8298 25.9329 25.8845 25.9148C25.915 25.9047 25.9454 25.8947 25.9759 25.8842C26.0339 25.8642 26.0918 25.8432 26.1494 25.822C26.1752 25.8124 26.2011 25.8032 26.2269 25.7934C26.308 25.7623 26.3888 25.7302 26.4688 25.6963C26.4704 25.6957 26.472 25.695 26.4736 25.6945C26.5556 25.6598 26.6371 25.6235 26.718 25.586C26.7423 25.5747 26.7663 25.5628 26.7905 25.5513C26.8466 25.5246 26.9028 25.4975 26.9584 25.4693C26.9875 25.4546 27.0163 25.4395 27.0454 25.4244C27.0739 25.4096 27.1026 25.3954 27.1309 25.3802L29.9996 29.7517H16.82Z" fill="#272324"/>
</svg>
